<?xml version="1.0" encoding="utf-8"?>
<!-- Generator: Adobe Illustrator 26.4.1, SVG Export Plug-In . SVG Version: 6.00 Build 0)  -->
<svg version="1.1" id="レイヤー_1" xmlns="http://www.w3.org/2000/svg" xmlns:xlink="http://www.w3.org/1999/xlink" x="0px"
	 y="0px" viewBox="0 0 204.1 43.1" style="enable-background:new 0 0 204.1 43.1;" xml:space="preserve">
<style type="text/css">
	.st0{fill:#404040;}
	.st1{fill:#005BAB;}
</style>
<g>
	<g>
		<path class="st0" d="M195,43.1c-1.7,0-11.1-0.5-11.1-12.5c0-11.9,8.4-12.5,11.1-12.5h9.1v3.1c0,0-5.2,0-9.1,0
			c-1.1,0-6.5-0.3-6.5,9.4c0,9.7,5.4,9.4,6.5,9.4c3.9,0,9.1,0,9.1,0v3.1H195z"/>
		<path class="st0" d="M124.4,17.4c-2.9,0-12.5,0.3-12.5,12.9c0,12.7,10.5,12.9,12.5,12.9c2,0,12.5-0.2,12.5-12.9
			C136.9,17.7,127.3,17.4,124.4,17.4z M124.4,40.3c-2.4,0-8.2,0.4-8.2-10c0-10.4,5.7-10,8.2-10c2.4,0,8.2-0.4,8.2,10
			C132.5,40.6,126.8,40.3,124.4,40.3z"/>
		<path class="st0" d="M171.8,21.2c3.9,0,9.1,0,9.1,0v-3.1h-9.1c-2.6,0-11.1,0.6-11.1,12.5c0,12,9.4,12.5,11.1,12.5h9.1V40
			c0,0-5.2,0-9.1,0c-1.1,0-6,0.2-6.4-8.1c5,0,15.5,0,15.5,0v-3.1h-15.5C166,21,170.8,21.2,171.8,21.2z"/>
		<polygon class="st0" points="138.6,18.1 138.6,21.2 147.2,21.2 147.2,43.1 151.4,43.1 151.4,21.2 159.8,21.2 159.8,18.1 		"/>
		<path class="st0" d="M104.1,31.5c3.6-1.2,5.2-2.9,5.2-6.5c0-3.6-3.4-6.9-8.8-6.9c-5.5,0-12.4,0-12.4,0v25h4.2V32.4
			c0,0,2.1,0,5.7,0c3.6,0,6.1,2,6.4,4.4c0.3,2.4,0.6,3.9,0.6,4.6c0,0.7,0.2,1.5,0.5,1.8h3.8c0,0-0.5-1-0.6-3.4
			C108.6,37.4,107.8,33.1,104.1,31.5z M100.9,29.5c-3.4,0-8.6,0-8.6,0v-8.3c0,0,5.5-0.1,8.8-0.1c3.4,0,4,2,4,4
			C105.1,27.2,104.5,29.5,100.9,29.5z"/>
		<rect x="80.1" y="18.1" class="st0" width="4.2" height="25"/>
		<polygon class="st0" points="72.1,18.1 72.1,28.9 58.6,28.9 58.6,18.1 54.4,18.1 54.4,43.1 58.6,43.1 58.6,32.4 72.1,32.4 
			72.1,43.1 76.3,43.1 76.3,18.1 		"/>
	</g>
	<g>
		<g>
			<path class="st1" d="M43.4,19.3V0H29v9.3C35.3,10.2,40.5,14,43.4,19.3z"/>
		</g>
		<path class="st1" d="M29,11.7c-0.9-0.1-1.8-0.2-2.7-0.2c-4.6,0-8.8,1.8-11.9,4.8V0H0v43.1h14.4l0-17.8c0-4,3.3-7.3,7.3-7.3
			c4,0,7.3,3.3,7.3,7.3l0,0.1v17.7h14.4V28.7C43.4,20.1,37.2,13,29,11.7z"/>
	</g>
</g>
</svg>
